<svg width="120" height="40" viewBox="0 0 120 40" fill="none" xmlns="http://www.w3.org/2000/svg">
  <path d="M17.9883 31H13.9062V20.7266L8.83203 31H5.90625L0.851562 20.8359V31H-3.23047V13.625H1.89453L8.42969 26.9258L14.8867 13.625H19.9883V31H17.9883Z" fill="currentColor"/>
  <path d="M49.7539 22.4336C49.7539 24.3164 49.4023 25.9883 48.6992 27.4492C47.9961 28.9102 47 30.0312 45.7109 30.8125C44.4336 31.5938 42.9375 31.9844 41.2227 31.9844C39.5195 31.9844 38.0234 31.5938 36.7344 30.8125C35.457 30.0312 34.4609 28.9141 33.7461 27.4609C33.043 26.0078 32.6914 24.3516 32.6914 22.4922V22.1914C32.6914 20.3086 33.043 18.6367 33.7461 17.1758C34.4609 15.7148 35.457 14.5938 36.7344 13.8125C38.0234 13.0312 39.5156 12.6406 41.2109 12.6406C42.9258 12.6406 44.4219 13.0312 45.6992 13.8125C46.9883 14.5938 47.9883 15.7148 48.6992 17.1758C49.4102 18.625 49.7656 20.293 49.7656 22.1758V22.4336H49.7539ZM45.6055 22.1758C45.6055 20.0977 45.1758 18.4883 44.3164 17.3477C43.457 16.207 42.5234 15.6367 41.2109 15.6367C39.9219 15.6367 38.9023 16.207 38.043 17.3477C37.1836 18.4766 36.7539 20.0742 36.7539 22.1406V22.4336C36.7539 24.4648 37.1836 26.0742 38.043 27.2617C38.9023 28.4492 39.9336 29.043 41.2344 29.043C42.5469 29.043 43.4805 28.4492 44.3281 27.2617C45.1758 26.0742 45.6055 24.4531 45.6055 22.3984V22.1758Z" fill="currentColor"/>
  <path d="M65.9883 31H61.9062V20.7266L56.832 31H53.9062L48.8516 20.8359V31H44.7695V13.625H49.8945L56.4297 26.9258L62.8867 13.625H67.9883V31H65.9883Z" fill="currentColor"/>
  <path d="M90.0352 25.0859C89.8867 26.9453 89.2891 28.4414 88.2422 29.5742C87.1953 30.707 85.7227 31.2734 83.8242 31.2734C81.7109 31.2734 80.0547 30.5234 78.8555 29.0234C77.668 27.5117 77.0742 25.4258 77.0742 22.7656V21.7578C77.0742 20.0078 77.3633 18.4648 77.9414 17.1289C78.5195 15.793 79.3477 14.7734 80.4258 14.0703C81.5039 13.3672 82.7461 13.0156 84.1523 13.0156C86.0039 13.0156 87.4453 13.5938 88.4766 14.75C89.5078 15.9062 90.0899 17.4961 90.2227 19.5195H86.3242C86.2617 18.4414 86.0156 17.6719 85.5859 17.2109C85.168 16.75 84.5313 16.5195 83.6758 16.5195C82.7031 16.5195 81.9883 16.8984 81.5312 17.6562C81.0742 18.4023 80.8281 19.6328 80.793 21.3477V22.8281C80.793 24.6719 80.9961 25.9766 81.4023 26.7422C81.8203 27.5078 82.5586 27.8906 83.6172 27.8906C84.457 27.8906 85.0938 27.6641 85.5273 27.2109C85.9727 26.7578 86.2148 26.0469 86.2539 25.0859H90.0352Z" fill="currentColor"/>
  <path d="M108.836 22.4336C108.836 24.3164 108.484 25.9883 107.781 27.4492C107.078 28.9102 106.082 30.0312 104.793 30.8125C103.516 31.5938 102.02 31.9844 100.305 31.9844C98.6016 31.9844 97.1055 31.5938 95.8164 30.8125C94.5391 30.0312 93.543 28.9141 92.8281 27.4609C92.125 26.0078 91.7734 24.3516 91.7734 22.4922V22.1914C91.7734 20.3086 92.125 18.6367 92.8281 17.1758C93.543 15.7148 94.5391 14.5938 95.8164 13.8125C97.1055 13.0312 98.5977 12.6406 100.293 12.6406C102.008 12.6406 103.504 13.0312 104.781 13.8125C106.07 14.5938 107.07 15.7148 107.781 17.1758C108.492 18.625 108.848 20.293 108.848 22.1758V22.4336H108.836ZM104.688 22.1758C104.688 20.0977 104.258 18.4883 103.398 17.3477C102.539 16.207 101.605 15.6367 100.293 15.6367C99.0039 15.6367 97.9844 16.207 97.125 17.3477C96.2656 18.4766 95.8359 20.0742 95.8359 22.1406V22.4336C95.8359 24.4648 96.2656 26.0742 97.125 27.2617C97.9844 28.4492 99.0156 29.043 100.316 29.043C101.629 29.043 102.562 28.4492 103.41 27.2617C104.258 26.0742 104.688 24.4531 104.688 22.3984V22.1758Z" fill="currentColor"/>
</svg> 